<svg xmlns="http://www.w3.org/2000/svg" xmlns:cc="http://web.resource.org/cc/" xmlns:svg="http://www.w3.org/2000/svg" xmlns:xlink="http://www.w3.org/1999/xlink" id="svg11300" width="48" height="48"><defs id="defs3"><linearGradient id="linearGradient2461"><stop style="stop-color:#f8f8f7;stop-opacity:1" id="stop2463" offset="0"/><stop style="stop-color:#babdb6;stop-opacity:1" id="stop2465" offset="1"/></linearGradient><linearGradient id="linearGradient4750"><stop style="stop-color:#fff;stop-opacity:0" id="stop4752" offset="0"/><stop id="stop4758" offset=".5" style="stop-color:#fff;stop-opacity:1"/><stop style="stop-color:#fff;stop-opacity:0" id="stop4754" offset="1"/></linearGradient><linearGradient id="linearGradient4728"><stop style="stop-color:#eeeeec;stop-opacity:1" id="stop4730" offset="0"/><stop style="stop-color:#fff;stop-opacity:1" id="stop4732" offset="1"/></linearGradient><linearGradient id="linearGradient4720"><stop style="stop-color:#000;stop-opacity:1" id="stop4722" offset="0"/><stop style="stop-color:#000;stop-opacity:0" id="stop4724" offset="1"/></linearGradient><linearGradient id="linearGradient4710"><stop style="stop-color:#f2f4f1;stop-opacity:1" id="stop4712" offset="0"/><stop style="stop-color:#d3d7cf;stop-opacity:1" id="stop4714" offset="1"/></linearGradient><linearGradient id="linearGradient11520"><stop id="stop11522" offset="0" style="stop-color:#fff;stop-opacity:1"/><stop id="stop11524" offset="1" style="stop-color:#dcdcdc;stop-opacity:1"/></linearGradient><linearGradient id="linearGradient11508"><stop id="stop11510" offset="0" style="stop-color:#000;stop-opacity:1"/><stop id="stop11512" offset="1" style="stop-color:#000;stop-opacity:0"/></linearGradient><linearGradient id="linearGradient11494"><stop id="stop11496" offset="0" style="stop-color:#ef2929;stop-opacity:1"/><stop id="stop11498" offset="1" style="stop-color:#ef2929;stop-opacity:0"/></linearGradient><linearGradient id="linearGradient11415"><stop id="stop11417" offset="0" style="stop-color:#204a87;stop-opacity:0"/><stop style="stop-color:#204a87;stop-opacity:1" id="stop11423" offset=".5"/><stop id="stop11419" offset="1" style="stop-color:#204a87;stop-opacity:0"/></linearGradient><linearGradient id="linearGradient11399"><stop id="stop11401" offset="0" style="stop-color:#000;stop-opacity:1"/><stop id="stop11403" offset="1" style="stop-color:#000;stop-opacity:0"/></linearGradient><linearGradient id="linearGradient11425" x1="15.828" x2="43.616" y1="3.774" y2="34.462" gradientTransform="translate(-60.28571,-0.285714)" gradientUnits="userSpaceOnUse" xlink:href="#linearGradient11415"/><linearGradient id="linearGradient11427" x1="9.696" x2="35.68" y1="9.346" y2="39.034" gradientTransform="translate(-60.57143,0.000000)" gradientUnits="userSpaceOnUse" xlink:href="#linearGradient11415"/><linearGradient id="linearGradient11439" x1="13.267" x2="26.759" y1="19.774" y2="33.462" gradientTransform="translate(-60.85714,0.428571)" gradientUnits="userSpaceOnUse" xlink:href="#linearGradient11415"/><radialGradient id="radialGradient11441" cx="12.071" cy="39.143" r="8.5" fx="12.071" fy="39.143" gradientTransform="matrix(1.000000,0.000000,0.000000,0.487395,0.000000,20.06483)" gradientUnits="userSpaceOnUse" xlink:href="#linearGradient11399"/><radialGradient id="radialGradient11500" cx="27.577" cy="15.048" r="3.834" fx="27.577" fy="15.048" gradientTransform="matrix(1.243453,2.106784e-16,-2.106784e-16,1.243453,-6.713754,-3.742847)" gradientUnits="userSpaceOnUse" xlink:href="#linearGradient11494"/><radialGradient id="radialGradient11504" cx="27.577" cy="16.049" r="3.834" fx="27.577" fy="16.049" gradientTransform="matrix(1.243453,2.106784e-16,-2.106784e-16,1.243453,-6.713754,-3.742847)" gradientUnits="userSpaceOnUse" xlink:href="#linearGradient11494"/><radialGradient id="radialGradient11514" cx="30.204" cy="44.565" r="6.566" fx="30.204" fy="44.565" gradientTransform="matrix(1.000000,0.000000,0.000000,0.338462,2.166583e-14,29.48178)" gradientUnits="userSpaceOnUse" xlink:href="#linearGradient11508"/><radialGradient id="radialGradient11526" cx="24.446" cy="35.878" r="20.531" fx="24.446" fy="35.878" gradientTransform="matrix(1.995058,-1.651527e-32,0.000000,1.995058,-24.32488,-35.70087)" gradientUnits="userSpaceOnUse" xlink:href="#linearGradient11520"/><radialGradient id="radialGradient11532" cx="30.204" cy="44.565" r="6.566" fx="30.204" fy="44.565" gradientTransform="matrix(1.000000,0.000000,0.000000,0.338462,3.185827e-15,29.48178)" gradientUnits="userSpaceOnUse" xlink:href="#linearGradient11508"/><radialGradient id="radialGradient1348" cx="30.204" cy="44.565" r="6.566" fx="30.204" fy="44.565" gradientTransform="matrix(1.000000,0.000000,0.000000,0.338462,-1.353344e-14,29.48178)" gradientUnits="userSpaceOnUse" xlink:href="#linearGradient11508"/><radialGradient id="radialGradient1350" cx="24.446" cy="35.878" r="20.531" fx="24.446" fy="35.878" gradientTransform="matrix(1.995058,-1.651527e-32,0.000000,1.995058,-24.32488,-35.70087)" gradientUnits="userSpaceOnUse" xlink:href="#linearGradient11520"/><radialGradient id="radialGradient1352" cx="27.577" cy="16.049" r="3.834" fx="27.577" fy="16.049" gradientTransform="matrix(1.243453,2.106784e-16,-2.106784e-16,1.243453,-6.713754,-3.742847)" gradientUnits="userSpaceOnUse" xlink:href="#linearGradient11494"/><radialGradient id="radialGradient1354" cx="27.577" cy="15.048" r="3.834" fx="27.577" fy="15.048" gradientTransform="matrix(1.243453,2.106784e-16,-2.106784e-16,1.243453,-6.713754,-3.742847)" gradientUnits="userSpaceOnUse" xlink:href="#linearGradient11494"/><radialGradient id="radialGradient1356" cx="30.204" cy="44.565" r="6.566" fx="30.204" fy="44.565" gradientTransform="matrix(1.000000,0.000000,0.000000,0.338462,2.220359e-14,29.48178)" gradientUnits="userSpaceOnUse" xlink:href="#linearGradient11508"/><radialGradient id="radialGradient1366" cx="24.446" cy="35.878" r="20.531" fx="24.446" fy="35.878" gradientTransform="matrix(2.049266,-1.696401e-32,0.000000,2.049266,-25.65002,-37.31089)" gradientUnits="userSpaceOnUse" xlink:href="#linearGradient11520"/><radialGradient id="radialGradient1513" cx="24.25" cy="39.813" r="17.375" fx="24.25" fy="39.813" gradientTransform="matrix(1,0,0,0.399281,8.146704e-14,23.91614)" gradientUnits="userSpaceOnUse" xlink:href="#linearGradient4720"/><radialGradient id="radialGradient1515" cx="24.5" cy="29.5" r="15.095" fx="24.5" fy="29.5" gradientTransform="matrix(1.045211,-2.149016e-16,2.269469e-16,0.989736,-41.10767,-11.64667)" gradientUnits="userSpaceOnUse" xlink:href="#linearGradient4710"/><linearGradient id="linearGradient1517" x1="24.095" x2="24.095" y1="12.595" y2="34.095" gradientTransform="matrix(0.482147,0,0,0.456557,-27.11755,4.266796)" gradientUnits="userSpaceOnUse" xlink:href="#linearGradient4728"/><linearGradient id="linearGradient1519" x1="38.293" x2="39.438" y1="6.717" y2="8.162" gradientTransform="matrix(0.524157,0,0,0.524157,2.40962,3.280934)" gradientUnits="userSpaceOnUse" xlink:href="#linearGradient4750"/><linearGradient id="linearGradient1521" x1="8.117" x2="9.067" y1="7.933" y2="6.784" gradientTransform="matrix(0.524157,0,0,0.524157,3.529108,3.248174)" gradientUnits="userSpaceOnUse" xlink:href="#linearGradient4750"/><radialGradient id="radialGradient1523" cx="24.25" cy="39.813" r="17.375" fx="24.25" fy="39.813" gradientTransform="matrix(1,0,0,0.399281,1.387778e-16,23.91614)" gradientUnits="userSpaceOnUse" xlink:href="#linearGradient4720"/><radialGradient id="radialGradient1525" cx="24.5" cy="29.5" r="15.095" fx="24.5" fy="29.5" gradientTransform="matrix(1.045211,-2.149016e-16,2.269469e-16,0.989736,-41.10767,-11.64667)" gradientUnits="userSpaceOnUse" xlink:href="#linearGradient4710"/><linearGradient id="linearGradient1527" x1="24.095" x2="24.095" y1="12.595" y2="34.095" gradientTransform="matrix(0.482147,0,0,0.456557,-27.11755,4.266796)" gradientUnits="userSpaceOnUse" xlink:href="#linearGradient4728"/><linearGradient id="linearGradient1529" x1="38.293" x2="39.438" y1="6.717" y2="8.162" gradientTransform="matrix(0.524157,0,0,0.524157,2.40962,3.280934)" gradientUnits="userSpaceOnUse" xlink:href="#linearGradient4750"/><linearGradient id="linearGradient1531" x1="8.117" x2="9.067" y1="7.933" y2="6.784" gradientTransform="matrix(0.524157,0,0,0.524157,3.529108,3.248174)" gradientUnits="userSpaceOnUse" xlink:href="#linearGradient4750"/><radialGradient id="radialGradient1551" cx="24.25" cy="39.813" r="17.375" fx="24.25" fy="39.813" gradientTransform="matrix(1,0,0,0.399281,1.474514e-16,23.91614)" gradientUnits="userSpaceOnUse" xlink:href="#linearGradient4720"/><radialGradient id="radialGradient1553" cx="32.124" cy="31.887" r="15.095" fx="32.124" fy="31.887" gradientTransform="matrix(0.950752,-2.149016e-16,2.064369e-16,0.989736,-7.702036,-11.43172)" gradientUnits="userSpaceOnUse" xlink:href="#linearGradient4710"/><linearGradient id="linearGradient1555" x1="24.095" x2="24.095" y1="12.595" y2="34.095" gradientTransform="matrix(0.438574,0,0,0.456557,5.023749,4.481748)" gradientUnits="userSpaceOnUse" xlink:href="#linearGradient4728"/><linearGradient id="linearGradient1557" x1="38.293" x2="39.438" y1="6.717" y2="8.162" gradientTransform="matrix(0.524157,0,0,0.524157,16.23946,3.167804)" gradientUnits="userSpaceOnUse" xlink:href="#linearGradient4750"/><linearGradient id="linearGradient1559" x1="8.117" x2="9.067" y1="7.933" y2="6.784" gradientTransform="matrix(0.524157,0,0,0.524157,4.610252,3.197544)" gradientUnits="userSpaceOnUse" xlink:href="#linearGradient4750"/><radialGradient id="radialGradient2467" cx="15.49" cy="6.249" r="10.495" fx="15.49" fy="6.249" gradientTransform="matrix(2.203274,-9.403163e-17,4.212765e-17,0.981352,-18.63845,-0.280284)" gradientUnits="userSpaceOnUse" xlink:href="#linearGradient2461"/></defs><metadata id="metadata4"/><g id="layer1"><g id="g1485" transform="translate(-3.000005,-2.99376)"><path id="path4718" d="M 41.625 39.8125 A 17.375 6.9375 0 1 1 6.875,39.8125 A 17.375 6.9375 0 1 1 41.625 39.8125 z" transform="matrix(0.524157,0,0,0.273884,2.448298,12.69591)" style="opacity:.38888891;color:#000;fill:url(#radialGradient1523);fill-opacity:1;fill-rule:nonzero;stroke:none;stroke-width:1;stroke-linecap:butt;stroke-linejoin:miter;marker:none;marker-start:none;marker-mid:none;marker-end:none;stroke-miterlimit:4;stroke-dasharray:none;stroke-dashoffset:0;stroke-opacity:1;visibility:visible;display:block;overflow:visible"/><rect id="rect2960" width="19.989" height="20.944" x="5.495" y="4.506" rx="2.449" ry="2.566" style="opacity:1;color:#000;fill:url(#radialGradient2467);fill-opacity:1;fill-rule:nonzero;stroke:#888a85;stroke-width:.99999928;stroke-linecap:butt;stroke-linejoin:miter;marker:none;marker-start:none;marker-mid:none;marker-end:none;stroke-miterlimit:4;stroke-dasharray:none;stroke-dashoffset:0;stroke-opacity:1;visibility:visible;display:block;overflow:visible"/><rect style="opacity:1;color:#000;fill:url(#radialGradient1525);fill-opacity:1;fill-rule:nonzero;stroke:url(#linearGradient1527);stroke-width:.99999982;stroke-linecap:butt;stroke-linejoin:miter;marker:none;marker-start:none;marker-mid:none;marker-end:none;stroke-miterlimit:4;stroke-dasharray:none;stroke-dashoffset:0;stroke-opacity:1;visibility:visible;display:block;overflow:visible" id="rect3835" width="14.074" height="13.327" x="-22.537" y="7.234" rx="1.725" ry="1.633" transform="scale(-1,1)"/><rect style="opacity:.48888891;color:#000;fill:none;fill-opacity:1;fill-rule:nonzero;stroke:#fff;stroke-width:.9999997;stroke-linecap:butt;stroke-linejoin:miter;marker:none;marker-start:none;marker-mid:none;marker-end:none;stroke-miterlimit:4;stroke-dasharray:none;stroke-dashoffset:0;stroke-opacity:1;visibility:visible;display:block;overflow:visible" id="rect4740" width="18.021" height="18.997" x="6.49" y="5.5" rx="1.557" ry="1.557"/><path id="path4742" d="M 6.9758347,22.771962 C 6.9202062,23.604707 7.4649175,24.090703 8.3837359,24.022097 L 9.265165,20.851969 L 8.6190879,20.469514 L 6.9758347,22.771962 z" style="opacity:.48888891;color:#000;fill:#fff;fill-opacity:1;fill-rule:nonzero;stroke:none;stroke-width:1;stroke-linecap:butt;stroke-linejoin:miter;marker:none;marker-start:none;marker-mid:none;marker-end:none;stroke-miterlimit:4;stroke-dasharray:none;stroke-dashoffset:0;stroke-opacity:1;visibility:visible;display:block;overflow:visible"/><path style="opacity:.48888891;color:#000;fill:#fff;fill-opacity:1;fill-rule:nonzero;stroke:none;stroke-width:1;stroke-linecap:butt;stroke-linejoin:miter;marker:none;marker-start:none;marker-mid:none;marker-end:none;stroke-miterlimit:4;stroke-dasharray:none;stroke-dashoffset:0;stroke-opacity:1;visibility:visible;display:block;overflow:visible" id="path4744" d="M 24.054496,22.998959 C 23.867056,23.942189 23.167665,24.052535 22.337235,24.05022 L 21.522097,20.96848 L 22.190272,20.563928 L 24.054496,22.998959 z"/><path id="path4746" d="M 24.029566,7.0818461 C 23.977024,6.4997455 23.650197,6.0533138 23.015555,6 L 22.15468,7.1442794 L 22.756563,7.7789222 L 24.029566,7.0818461 z" style="opacity:1;color:#000;fill:url(#linearGradient1529);fill-opacity:1;fill-rule:nonzero;stroke:none;stroke-width:1;stroke-linecap:butt;stroke-linejoin:miter;marker:none;marker-start:none;marker-mid:none;marker-end:none;stroke-miterlimit:4;stroke-dasharray:none;stroke-dashoffset:0;stroke-opacity:1;visibility:visible;display:block;overflow:visible"/><path style="opacity:1;color:#000;fill:url(#linearGradient1531);fill-opacity:1;fill-rule:nonzero;stroke:none;stroke-width:1;stroke-linecap:butt;stroke-linejoin:miter;marker:none;marker-start:none;marker-mid:none;marker-end:none;stroke-miterlimit:4;stroke-dasharray:none;stroke-dashoffset:0;stroke-opacity:1;visibility:visible;display:block;overflow:visible" id="path4748" d="M 6.9033707,6.9827949 C 7.0443013,6.4669855 7.4488535,6.0312166 8.017205,6 L 8.7790291,7.1877019 L 8.2197971,7.8223447 L 6.9033707,6.9827949 z"/></g><path style="opacity:1;color:#000;fill:none;fill-opacity:1;fill-rule:nonzero;stroke:#204a87;stroke-width:5.20526981;stroke-linecap:butt;stroke-linejoin:miter;marker:none;marker-start:none;marker-mid:none;marker-end:none;stroke-miterlimit:4;stroke-dasharray:none;stroke-dashoffset:0;stroke-opacity:1;visibility:visible;display:block;overflow:visible" id="path2455" d="M 44.724504 19.538952 A 13.611806 13.611806 0 1 1 17.500892,19.538952 A 13.611806 13.611806 0 1 1 44.724504 19.538952 z" transform="matrix(0.384226,0,0,0.384226,25.25719,17.86522)"/><g id="g1495" transform="translate(20.00496,-2.94313)"><path style="opacity:.38888891;color:#000;fill:url(#radialGradient1513);fill-opacity:1;fill-rule:nonzero;stroke:none;stroke-width:1;stroke-linecap:butt;stroke-linejoin:miter;marker:none;marker-start:none;marker-mid:none;marker-end:none;stroke-miterlimit:4;stroke-dasharray:none;stroke-dashoffset:0;stroke-opacity:1;visibility:visible;display:block;overflow:visible" id="path1497" d="M 41.625 39.8125 A 17.375 6.9375 0 1 1 6.875,39.8125 A 17.375 6.9375 0 1 1 41.625 39.8125 z" transform="matrix(0.524157,0,0,0.273884,2.448298,12.69591)"/><rect style="opacity:1;color:#000;fill:#babdb6;fill-opacity:1;fill-rule:nonzero;stroke:#888a85;stroke-width:.99999928;stroke-linecap:butt;stroke-linejoin:miter;marker:none;marker-start:none;marker-mid:none;marker-end:none;stroke-miterlimit:4;stroke-dasharray:none;stroke-dashoffset:0;stroke-opacity:1;visibility:visible;display:block;overflow:visible" id="rect1499" width="19.989" height="20.944" x="5.495" y="4.506" rx="2.449" ry="2.566"/><rect id="rect1501" width="14.074" height="13.327" x="-22.537" y="7.234" rx="1.725" ry="1.633" transform="scale(-1,1)" style="opacity:1;color:#000;fill:url(#radialGradient1515);fill-opacity:1;fill-rule:nonzero;stroke:url(#linearGradient1517);stroke-width:.99999982;stroke-linecap:butt;stroke-linejoin:miter;marker:none;marker-start:none;marker-mid:none;marker-end:none;stroke-miterlimit:4;stroke-dasharray:none;stroke-dashoffset:0;stroke-opacity:1;visibility:visible;display:block;overflow:visible"/><rect id="rect1503" width="18.021" height="18.997" x="6.49" y="5.5" rx="1.557" ry="1.557" style="opacity:.48888891;color:#000;fill:none;fill-opacity:1;fill-rule:nonzero;stroke:#fff;stroke-width:.9999997;stroke-linecap:butt;stroke-linejoin:miter;marker:none;marker-start:none;marker-mid:none;marker-end:none;stroke-miterlimit:4;stroke-dasharray:none;stroke-dashoffset:0;stroke-opacity:1;visibility:visible;display:block;overflow:visible"/><path style="opacity:.48888891;color:#000;fill:#fff;fill-opacity:1;fill-rule:nonzero;stroke:none;stroke-width:1;stroke-linecap:butt;stroke-linejoin:miter;marker:none;marker-start:none;marker-mid:none;marker-end:none;stroke-miterlimit:4;stroke-dasharray:none;stroke-dashoffset:0;stroke-opacity:1;visibility:visible;display:block;overflow:visible" id="path1505" d="M 6.9758347,22.771962 C 6.9202062,23.604707 7.4649175,24.090703 8.3837359,24.022097 L 9.265165,20.851969 L 8.6190879,20.469514 L 6.9758347,22.771962 z"/><path id="path1507" d="M 24.054496,22.998959 C 23.867056,23.942189 23.167665,24.052535 22.337235,24.05022 L 21.522097,20.96848 L 22.190272,20.563928 L 24.054496,22.998959 z" style="opacity:.48888891;color:#000;fill:#fff;fill-opacity:1;fill-rule:nonzero;stroke:none;stroke-width:1;stroke-linecap:butt;stroke-linejoin:miter;marker:none;marker-start:none;marker-mid:none;marker-end:none;stroke-miterlimit:4;stroke-dasharray:none;stroke-dashoffset:0;stroke-opacity:1;visibility:visible;display:block;overflow:visible"/><path style="opacity:1;color:#000;fill:url(#linearGradient1519);fill-opacity:1;fill-rule:nonzero;stroke:none;stroke-width:1;stroke-linecap:butt;stroke-linejoin:miter;marker:none;marker-start:none;marker-mid:none;marker-end:none;stroke-miterlimit:4;stroke-dasharray:none;stroke-dashoffset:0;stroke-opacity:1;visibility:visible;display:block;overflow:visible" id="path1509" d="M 24.029566,7.0818461 C 23.977024,6.4997455 23.650197,6.0533138 23.015555,6 L 22.15468,7.1442794 L 22.756563,7.7789222 L 24.029566,7.0818461 z"/><path id="path1511" d="M 6.9033707,6.9827949 C 7.0443013,6.4669855 7.4488535,6.0312166 8.017205,6 L 8.7790291,7.1877019 L 8.2197971,7.8223447 L 6.9033707,6.9827949 z" style="opacity:1;color:#000;fill:url(#linearGradient1521);fill-opacity:1;fill-rule:nonzero;stroke:none;stroke-width:1;stroke-linecap:butt;stroke-linejoin:miter;marker:none;marker-start:none;marker-mid:none;marker-end:none;stroke-miterlimit:4;stroke-dasharray:none;stroke-dashoffset:0;stroke-opacity:1;visibility:visible;display:block;overflow:visible"/></g><g id="g1533" transform="matrix(1,0,0,1.005412,-2.984515,19.97269)"><path style="opacity:.38888891;color:#000;fill:url(#radialGradient1551);fill-opacity:1;fill-rule:nonzero;stroke:none;stroke-width:1;stroke-linecap:butt;stroke-linejoin:miter;marker:none;marker-start:none;marker-mid:none;marker-end:none;stroke-miterlimit:4;stroke-dasharray:none;stroke-dashoffset:0;stroke-opacity:1;visibility:visible;display:block;overflow:visible" id="path1535" d="M 41.625 39.8125 A 17.375 6.9375 0 1 1 6.875,39.8125 A 17.375 6.9375 0 1 1 41.625 39.8125 z" transform="matrix(0.524157,0,0,0.273884,2.448298,12.69591)"/><rect style="opacity:1;color:#000;fill:#babdb6;fill-opacity:1;fill-rule:nonzero;stroke:#888a85;stroke-width:.99730414;stroke-linecap:butt;stroke-linejoin:miter;marker:none;marker-start:none;marker-mid:none;marker-end:none;stroke-miterlimit:4;stroke-dasharray:none;stroke-dashoffset:0;stroke-opacity:1;visibility:visible;display:block;overflow:visible" id="rect1537" width="33.16" height="20.944" x="6.365" y="4.506" rx="2.566" ry="2.552"/><rect id="rect1539" width="27.3" height="13.051" x="9.19" y="7.449" rx="1.321" ry="1.313" style="opacity:1;color:#000;fill:url(#radialGradient1553);fill-opacity:1;fill-rule:nonzero;stroke:url(#linearGradient1555);stroke-width:.99730474;stroke-linecap:butt;stroke-linejoin:miter;marker:none;marker-start:none;marker-mid:none;marker-end:none;stroke-miterlimit:4;stroke-dasharray:none;stroke-dashoffset:0;stroke-opacity:1;visibility:visible;display:block;overflow:visible"/><rect id="rect1541" width="31.215" height="18.997" x="7.362" y="5.438" rx="1.557" ry="1.548" style="opacity:.48888891;color:#000;fill:none;fill-opacity:1;fill-rule:nonzero;stroke:#fff;stroke-width:.99730456;stroke-linecap:butt;stroke-linejoin:miter;marker:none;marker-start:none;marker-mid:none;marker-end:none;stroke-miterlimit:4;stroke-dasharray:none;stroke-dashoffset:0;stroke-opacity:1;visibility:visible;display:block;overflow:visible"/><path style="opacity:.48888891;color:#000;fill:#fff;fill-opacity:1;fill-rule:nonzero;stroke:none;stroke-width:1;stroke-linecap:butt;stroke-linejoin:miter;marker:none;marker-start:none;marker-mid:none;marker-end:none;stroke-miterlimit:4;stroke-dasharray:none;stroke-dashoffset:0;stroke-opacity:1;visibility:visible;display:block;overflow:visible" id="path1543" d="M 7.9602097,22.928212 C 7.9202062,23.604707 8.7305425,23.981328 9.0868609,23.943972 L 10.12454,20.883219 L 9.3534629,20.297639 L 7.9602097,22.928212 z"/><path id="path1545" d="M 38.516914,22.835574 C 38.329474,23.778804 37.630083,23.88915 36.799653,23.886835 L 35.984515,20.805095 L 36.65269,20.400543 L 38.516914,22.835574 z" style="opacity:.48888891;color:#000;fill:#fff;fill-opacity:1;fill-rule:nonzero;stroke:none;stroke-width:1;stroke-linecap:butt;stroke-linejoin:miter;marker:none;marker-start:none;marker-mid:none;marker-end:none;stroke-miterlimit:4;stroke-dasharray:none;stroke-dashoffset:0;stroke-opacity:1;visibility:visible;display:block;overflow:visible"/><path style="opacity:1;color:#000;fill:url(#linearGradient1557);fill-opacity:1;fill-rule:nonzero;stroke:none;stroke-width:1;stroke-linecap:butt;stroke-linejoin:miter;marker:none;marker-start:none;marker-mid:none;marker-end:none;stroke-miterlimit:4;stroke-dasharray:none;stroke-dashoffset:0;stroke-opacity:1;visibility:visible;display:block;overflow:visible" id="path1547" d="M 37.859401,6.9687161 C 37.806859,6.3866155 37.480032,5.9401838 36.84539,5.88687 L 35.984515,7.0311494 L 36.586398,7.6657922 L 37.859401,6.9687161 z"/><path id="path1549" d="M 7.984515,6.9321649 C 8.1254456,6.4163555 8.5299978,5.9805866 9.0983493,5.94937 L 9.8601734,7.1370719 L 9.3009414,7.7717147 L 7.984515,6.9321649 z" style="opacity:1;color:#000;fill:url(#linearGradient1559);fill-opacity:1;fill-rule:nonzero;stroke:none;stroke-width:1;stroke-linecap:butt;stroke-linejoin:miter;marker:none;marker-start:none;marker-mid:none;marker-end:none;stroke-miterlimit:4;stroke-dasharray:none;stroke-dashoffset:0;stroke-opacity:1;visibility:visible;display:block;overflow:visible"/></g><path style="font-size:10px;font-style:normal;font-variant:normal;font-weight:400;font-stretch:normal;line-height:100%;writing-mode:lr-tb;text-anchor:start;fill:#000;fill-opacity:1;stroke:none;stroke-width:1px;stroke-linecap:butt;stroke-linejoin:miter;stroke-opacity:1;font-family:Segoe" id="text1561" d="M 17.619141,8.9375 L 15.37793,14.635742 C 15.159828,15.185871 14.889646,15.597655 14.567383,15.871094 C 14.245116,16.147784 13.872395,16.28613 13.449219,16.286133 C 13.292968,16.28613 13.12858,16.266599 12.956055,16.227539 L 12.956055,15.329102 C 13.148112,15.387694 13.322265,15.416991 13.478516,15.416992 C 13.667317,15.416991 13.839843,15.360025 13.996094,15.246094 C 14.155597,15.135415 14.284178,14.966145 14.381836,14.738281 L 14.728516,13.9375 L 12.746094,8.9375 L 13.795898,8.9375 L 15.089844,12.6875 C 15.112628,12.746095 15.141925,12.876303 15.177734,13.078125 L 15.207031,13.078125 C 15.255857,12.873048 15.290036,12.74284 15.30957,12.6875 L 16.637695,8.9375 L 17.619141,8.9375"/><path style="font-size:10px;font-style:normal;font-variant:normal;font-weight:400;font-stretch:normal;line-height:100%;writing-mode:lr-tb;text-anchor:start;fill:#000;fill-opacity:1;stroke:none;stroke-width:1px;stroke-linecap:butt;stroke-linejoin:miter;stroke-opacity:1;font-family:Segoe" id="text1565" d="M 39.714844,8.9375 L 38.035156,11.457031 L 39.705078,13.9375 L 38.606445,13.9375 L 37.454102,11.989258 L 36.262695,13.9375 L 35.183594,13.9375 L 36.907227,11.476562 L 35.286133,8.9375 L 36.384766,8.9375 L 37.493164,10.978516 L 38.68457,8.9375 L 39.714844,8.9375"/><path style="font-size:10px;font-style:normal;font-variant:normal;font-weight:400;font-stretch:normal;line-height:100%;writing-mode:lr-tb;text-anchor:start;fill:#000;fill-opacity:1;stroke:none;stroke-width:1px;stroke-linecap:butt;stroke-linejoin:miter;stroke-opacity:1;font-family:Segoe" id="text1569" d="M 14.385742,38.052734 C 13.851883,38.348958 13.189449,38.49707 12.398438,38.49707 C 11.405596,38.49707 10.609699,38.176432 10.010742,37.535156 C 9.4150383,36.893882 9.1171871,36.050784 9.1171875,35.005859 C 9.1171871,33.895838 9.4589836,32.994146 10.142578,32.300781 C 10.829425,31.604173 11.680661,31.255866 12.696289,31.255859 C 13.383133,31.255866 13.946284,31.35515 14.385742,31.553711 L 14.385742,32.583984 C 13.868159,32.278001 13.301753,32.125006 12.686523,32.125 C 11.924801,32.125006 11.304685,32.382167 10.826172,32.896484 C 10.347655,33.407557 10.108397,34.094405 10.108398,34.957031 C 10.108397,35.774091 10.329751,36.425132 10.772461,36.910156 C 11.215167,37.391928 11.802731,37.632813 12.535156,37.632812 C 13.244787,37.632813 13.861648,37.463543 14.385742,37.125 L 14.385742,38.052734 M 18.130859,38.306641 C 17.925778,38.410807 17.662107,38.462891 17.339844,38.462891 C 16.874347,38.462891 16.52604,38.337565 16.294922,38.086914 C 16.063801,37.833008 15.948241,37.452149 15.948242,36.944336 L 15.948242,34.126953 L 15.108398,34.126953 L 15.108398,33.375 L 15.948242,33.375 L 15.948242,32.183594 L 16.890625,31.885742 L 16.890625,33.375 L 18.130859,33.375 L 18.130859,34.126953 L 16.890625,34.126953 L 16.890625,36.763672 C 16.890623,37.089194 16.945961,37.321941 17.056641,37.461914 C 17.167315,37.598634 17.361,37.666993 17.637695,37.666992 C 17.816729,37.666993 17.981117,37.613282 18.130859,37.505859 L 18.130859,38.306641 M 22.011719,34.336914 C 21.842445,34.222986 21.625973,34.16602 21.362305,34.166016 C 21.049802,34.16602 20.504881,34.309249 20.290039,34.595703 C 20.075193,34.882165 19.967772,35.261396 19.967773,35.733398 L 19.967773,38.375 L 19.030273,38.375 L 19.030273,33.375 L 19.967773,33.375 L 19.967773,34.366211 C 20.088214,34.014653 20.263995,33.747726 20.495117,33.56543 C 20.726234,33.379888 21.259763,33.287114 21.533203,33.287109 C 21.738278,33.287114 21.897783,33.309901 22.011719,33.355469 L 22.011719,34.336914 M 24.005859,38.375 L 23.058594,38.375 L 23.058594,30.972656 L 24.005859,30.972656 L 24.005859,38.375"/><rect style="opacity:1;color:#000;fill:none;fill-opacity:1;fill-rule:nonzero;stroke:#204a87;stroke-width:2.00000048;stroke-linecap:butt;stroke-linejoin:miter;marker:none;marker-start:none;marker-mid:none;marker-end:none;stroke-miterlimit:4;stroke-dasharray:none;stroke-dashoffset:0;stroke-opacity:1;visibility:visible;display:block;overflow:visible" id="rect1576" width="33.699" height="22.143" x="3.15" y="23.929" rx="2.9" ry="2.9"/><rect id="rect2451" width="20.877" height="21.781" x="25.063" y="1.124" rx="2.723" ry="2.723" style="opacity:1;color:#000;fill:none;fill-opacity:1;fill-rule:nonzero;stroke:#204a87;stroke-width:2.00000119;stroke-linecap:butt;stroke-linejoin:miter;marker:none;marker-start:none;marker-mid:none;marker-end:none;stroke-miterlimit:4;stroke-dasharray:none;stroke-dashoffset:0;stroke-opacity:1;visibility:visible;display:block;overflow:visible"/></g></svg>
