<svg xmlns="http://www.w3.org/2000/svg" xmlns:svg="http://www.w3.org/2000/svg" xmlns:xlink="http://www.w3.org/1999/xlink" id="svg2" width="22" height="22" version="1.0"><metadata id="metadata38"/><defs id="defs4"><linearGradient id="linearGradient6568"><stop id="stop6570" offset="0" style="stop-color:#430d0d;stop-opacity:1"/><stop id="stop6572" offset="1" style="stop-color:#643314;stop-opacity:1"/></linearGradient><linearGradient id="linearGradient6560"><stop id="stop6562" offset="0" style="stop-color:#a14c13;stop-opacity:1"/><stop id="stop6564" offset="1" style="stop-color:#6b0c0c;stop-opacity:1"/></linearGradient><linearGradient id="linearGradient6602"><stop id="stop6604" offset="0" style="stop-color:white;stop-opacity:1"/><stop id="stop6606" offset="1" style="stop-color:white;stop-opacity:0"/></linearGradient><linearGradient id="linearGradient3600"><stop id="stop3602" offset="0" style="stop-color:#f4f4f4;stop-opacity:1"/><stop id="stop3604" offset="1" style="stop-color:#dbdbdb;stop-opacity:1"/></linearGradient><linearGradient id="linearGradient6592"><stop id="stop6594" offset="0" style="stop-color:white;stop-opacity:.27450982"/><stop id="stop6596" offset="1" style="stop-color:white;stop-opacity:0"/></linearGradient><linearGradient id="linearGradient259-942"><stop id="stop3802" offset="0" style="stop-color:white;stop-opacity:1"/><stop id="stop3804" offset="1" style="stop-color:#e0e0e0;stop-opacity:1"/></linearGradient><linearGradient id="linearGradient5508" x1="12.938" x2="15.25" y1="8.438" y2="19.813" gradientTransform="matrix(0.4285714,0,0,0.5999999,0.7138681,2.1999998)" gradientUnits="userSpaceOnUse" xlink:href="#linearGradient6592"/><linearGradient id="linearGradient5511" x1="25.132" x2="25.132" y1="6.729" y2="47.013" gradientTransform="matrix(0.07913624,0,0,0.08377263,4.600728,10.989452)" gradientUnits="userSpaceOnUse" xlink:href="#linearGradient3600"/><linearGradient id="linearGradient5514" x1="25.132" x2="25.132" y1="6.729" y2="47.013" gradientTransform="matrix(0.07913633,0,0,0.08377275,4.6007281,5.9894567)" gradientUnits="userSpaceOnUse" xlink:href="#linearGradient3600"/><radialGradient id="radialGradient5517" cx="5.969" cy="-.646" r="20" fx="5.969" fy="-.646" gradientTransform="matrix(0.6089866,-0.00386245,0.00105568,0.2573681,0.4306269,6.4125529)" gradientUnits="userSpaceOnUse" xlink:href="#linearGradient6602"/><radialGradient id="radialGradient5520" cx="12.244" cy="4.863" r="21" fx="12.244" fy="4.863" gradientTransform="matrix(0.5734667,0.0092819,-0.00533941,0.5188569,-0.8701756,4.777955)" gradientUnits="userSpaceOnUse" xlink:href="#linearGradient6560"/><linearGradient id="linearGradient5522" x1="24.875" x2="25" y1="29" y2="3" gradientTransform="matrix(0.4146448,0,0,0.5200176,1.0485236,2.6797151)" gradientUnits="userSpaceOnUse" xlink:href="#linearGradient6568"/><linearGradient id="linearGradient5525" x1="108.265" x2="25.818" y1="110.281" y2="14.029" gradientTransform="matrix(0.2364302,0,0,0.1658673,-27.025879,-21.665254)" gradientUnits="userSpaceOnUse" xlink:href="#linearGradient259-942"/></defs><path id="path2518" d="M 10.95525,1.6016599 C 10.106647,3.6822049 9.7220899,4.7679982 8.7772833,6.7866984 9.3565676,7.4007414 9.9378238,8.3902532 11.092558,9.1978701 10.096773,9.1292168 8.9065568,8.4692552 8.2737115,7.9370358 7.0645404,10.460163 5.2671507,13.759051 1.42275,20.666662 4.4435632,18.922693 6.7853473,17.847001 8.9677616,17.436412 8.8743846,17.033935 8.8245136,16.596543 8.8281309,16.142447 l 0.00242,-0.09542 c 0.04795,-1.935841 1.0552308,-3.424421 2.2481431,-3.323344 1.192915,0.101076 2.121545,1.752884 2.0736,3.688725 -0.009,0.364635 -0.05143,0.714997 -0.123348,1.040291 2.158928,0.422494 4.478626,1.493393 7.4589,3.213959 -0.587729,-1.082059 -1.049315,-1.698306 -1.550289,-2.627273 -0.951203,-0.903364 -1.869107,-1.712747 -3.355596,-2.627703 0.959515,0.105368 1.768877,0.303693 2.412927,0.690392 C 12.90133,6.6187394 12.702058,5.7006627 10.955357,1.6016599 z" style="fill:#000;fill-opacity:1;fill-rule:evenodd;stroke:none;stroke-width:.99807531000000005;stroke-linejoin:miter;stroke-miterlimit:4;stroke-opacity:1;stroke-dasharray:none"/></svg>
